<svg version="1.2" xmlns="http://www.w3.org/2000/svg" viewBox="0 0 24 24" width="24" height="24"><style>.a{fill:#fff}</style><path class="a" d="m16 4v7h-8v-7zm1 5v2h-1v-2zm3-1v3h-1v-3zm-1 2v1h-2v-1zm3 0v1h-2v-1zm-14 0v1h-6v-1zm0-1v1h-1v-1zm-3-1v2h-1v-2zm-1-5v5h-1v-5zm3 0v1h-3v-1zm1 1v1h-1v-1zm13-1v1h-4v-1zm0 1v4h-1v-4zm-4 0v1h-1v-1zm-10 8v2h-3v-2zm13 0v1h-13v-1zm0 1v1h-3v-1zm0 1v2h-2v-2zm-1 2v3h-1v-3zm1 0v1h-1v-1zm1 1v1h-1v-1zm0-2v1h-1v-1zm1-1v1h-1v-1zm-6-1v4h-1v-4zm-3 0v2h-2v-2zm1 0v1h-1v-1zm-3 0v1h-1v-1zm-2 0v4h-1v-4zm-3 1v2h-2v-2zm0 2v1h-2v-1zm0 1v2h-1v-2zm-2 0v1h-1v-1zm0-2v1h-1v-1zm-1-1v1h-1v-1zm4 2v2h-1v-2zm4 1v2h-4v-2zm6 0v2h-4v-2zm1-1v2h-1v-2zm-5 2v1h-2v-1zm0-3v2h-2v-2zm1 1v1h-1v-1zm-3 0v1h-1v-1z"/></svg>